<?xml version="1.0" encoding="UTF-8" standalone="no"?>
<!DOCTYPE svg PUBLIC "-//W3C//DTD SVG 1.1//EN" "http://www.w3.org/Graphics/SVG/1.1/DTD/svg11.dtd">
<svg width="100%" height="100%" viewBox="0 0 650 300" version="1.1" xmlns="http://www.w3.org/2000/svg" xmlns:xlink="http://www.w3.org/1999/xlink" xml:space="preserve" xmlns:serif="http://www.serif.com/" style="fill-rule:evenodd;clip-rule:evenodd;stroke-linecap:round;stroke-linejoin:round;stroke-miterlimit:1.5;">
    <g transform="matrix(1.03425,0,0,0.804283,-113.606,-63.4149)">
        <path d="M119.921,220.673C119.921,220.673 141.464,206.977 142.446,205.995C145.398,203.044 149.953,199.806 152.948,197.202C164.651,187.026 168.019,176.974 173.329,163.683C184.27,136.293 190.436,121.369 207.643,112.546C226.982,102.629 239.551,100.536 259.763,99.266C291.69,97.26 300.038,96.293 349.002,95.761C394.865,95.263 498.57,102.12 515.429,102.399C578.337,103.44 653.258,103.731 665.563,106.005C675.87,107.91 708.145,104.718 721.467,137.526C729.717,157.842 727.719,172.586 720.47,186.775C708.874,209.477 678.401,221.424 649.357,225.005C620.377,228.578 558.687,229.655 524.899,228.466C498.255,227.528 408.589,225.988 385.563,225.938C366.077,225.896 300.099,222.584 264.551,224.019C236.224,225.163 205.226,232.816 183.331,219.869C172.893,213.697 174.837,207.932 168.641,205.828C163.517,204.088 158.846,207.571 153.156,210.645C145.555,214.75 123.333,220.673 119.921,220.673Z" style="fill:white;stroke:black;stroke-width:1.14px;"/>
    </g>
</svg>
