<?xml version="1.0" encoding="UTF-8" standalone="no"?>
<svg
   xmlns:dc="http://purl.org/dc/elements/1.1/"
   xmlns:cc="http://creativecommons.org/ns#"
   xmlns:rdf="http://www.w3.org/1999/02/22-rdf-syntax-ns#"
   xmlns:svg="http://www.w3.org/2000/svg"
   xmlns="http://www.w3.org/2000/svg"
   id="svg20"
   style="fill-rule:evenodd;clip-rule:evenodd;stroke-linecap:round;stroke-linejoin:round;stroke-miterlimit:1.5;"
   xml:space="preserve"
   version="1.1"
   viewBox="0 0 700 300"
   height="100%"
   width="100%"><metadata
     id="metadata26"><rdf:RDF><cc:Work
         rdf:about=""><dc:format>image/svg+xml</dc:format><dc:type
           rdf:resource="http://purl.org/dc/dcmitype/StillImage" /><dc:title></dc:title></cc:Work></rdf:RDF></metadata><defs
     id="defs24" /><g
     id="g4"
     transform="matrix(1.12297,0,0,0.91376,-124.246,-35.9688)"><path
       id="path2"
       style="fill:white;stroke:black;stroke-width:1.2px;"
       d="M119.921,220.673C119.921,220.673 141.464,206.977 142.446,205.995C145.398,203.044 149.953,199.806 152.948,197.202C164.651,187.026 164.492,180.18 167.386,165.707C171.695,144.165 166.302,121.378 210.254,103.11C269.157,78.627 396.799,87.869 461.67,88.172C509.035,88.393 680.15,82.098 701.59,119.218C721.339,153.412 716.669,172.034 715.304,196.147C713.675,224.934 704.01,259.162 696.852,271.092C673.721,309.643 643.788,296.455 595.445,302.059C565.329,305.55 507.124,302.872 473.327,303.545C458.812,303.834 375.79,305.17 356.418,305.903C344.572,306.351 249.926,308.548 209.353,294.712C187.291,287.189 180.74,254.7 172.859,230.318C171.664,226.62 168.975,210.802 166.468,208.294C165.768,207.595 157.734,209.976 153.643,211.533C146.719,214.168 123.333,220.673 119.921,220.673Z" /></g></svg>