<?xml version="1.0" encoding="UTF-8" standalone="no"?>
<!DOCTYPE svg PUBLIC "-//W3C//DTD SVG 1.1//EN" "http://www.w3.org/Graphics/SVG/1.1/DTD/svg11.dtd">
<svg width="100%" height="100%" viewBox="0 0 650 300" version="1.1" xmlns="http://www.w3.org/2000/svg" xmlns:xlink="http://www.w3.org/1999/xlink" xml:space="preserve" xmlns:serif="http://www.serif.com/" style="fill-rule:evenodd;clip-rule:evenodd;stroke-linecap:round;stroke-linejoin:round;stroke-miterlimit:1.5;">
    <g transform="matrix(1.03425,0,0,0.804283,-113.606,-63.4149)">
        <path d="M119.921,220.673C119.921,220.673 141.464,206.977 142.446,205.995C145.398,203.044 149.953,199.806 152.948,197.202C164.651,187.026 164.492,180.18 167.386,165.707C171.695,144.165 166.302,121.378 210.254,103.11C240.669,90.468 289.483,91.821 338.447,91.29C384.31,90.792 430.296,88.025 461.67,88.172C471.68,88.219 486.225,88.385 503.083,88.664C565.992,89.705 661.131,92.308 673.214,96.063C674.99,96.615 711.666,101.068 723.248,123.374C735.707,147.368 734.029,174.485 734.608,191.911C735.566,220.747 737.652,341.558 729.89,373.643C725.644,391.192 715.758,409.539 702.028,425.144C685.301,444.156 647.114,444.605 618.381,444.577C588.143,444.547 532.349,442.217 498.553,442.89C484.037,443.179 360.939,444.854 337.926,443.902C318.074,443.081 245.367,451.896 216.2,439.125C188.801,427.128 184.018,399.811 177.494,371.626C169.289,336.172 169.604,217.331 167.672,214.089C162.829,205.963 157.734,209.976 153.643,211.533C146.719,214.168 123.333,220.673 119.921,220.673Z" style="fill:white;stroke:black;stroke-width:1.14px;"/>
    </g>
</svg>
