<?xml version="1.0" encoding="UTF-8" standalone="no"?>
<!DOCTYPE svg PUBLIC "-//W3C//DTD SVG 1.1//EN" "http://www.w3.org/Graphics/SVG/1.1/DTD/svg11.dtd">
<svg width="100%" height="100%" viewBox="0 0 650 300" version="1.1" xmlns="http://www.w3.org/2000/svg" xmlns:xlink="http://www.w3.org/1999/xlink" xml:space="preserve" xmlns:serif="http://www.serif.com/" style="fill-rule:evenodd;clip-rule:evenodd;stroke-linecap:round;stroke-linejoin:round;stroke-miterlimit:1.5;">
    <g transform="matrix(1.03425,0,0,0.804283,-113.606,-63.4149)">
        <path d="M119.921,220.673C119.921,220.673 141.464,206.977 142.446,205.995C145.398,203.044 149.953,199.806 152.948,197.202C164.651,187.026 165.551,177.692 168.932,163.396C174.639,139.269 180.665,128.592 195.433,113.335C211.664,96.569 225.675,94.333 245.888,93.064C277.814,91.058 295.037,89.712 344.002,89.18C389.864,88.682 495.322,89.346 512.181,89.625C575.09,90.666 649.355,92.12 661.66,94.395C671.967,96.3 705.87,97.541 719.669,130.02C730.427,155.339 730.087,176.897 730.665,194.323C731.623,223.16 736.176,258.788 723.367,293.524C714.118,318.605 713.857,316.685 700.127,332.29C683.4,351.302 660.68,351.149 631.947,351.121C601.709,351.092 546.605,354.539 512.808,355.212C498.293,355.501 385.406,354.041 362.392,353.089C342.54,352.267 279.851,351.906 249.07,350.139C221.662,348.566 195.579,358.505 179.383,314.68C167.037,281.27 169.604,217.331 167.672,214.089C162.829,205.963 157.734,209.976 153.643,211.533C146.719,214.168 123.333,220.673 119.921,220.673Z" style="fill:white;stroke:black;stroke-width:1.14px;"/>
    </g>
</svg>
